<svg xmlns="http://www.w3.org/2000/svg" width="48" height="49" fill="none" viewBox="0 0 48 49">
    <path fill="#fff" d="M0 0h48v4.414H0zM0 11.77h48v4.414H0zM0 23.537h48v4.414H0zM12.016 48.709h-1.472l-.208-3.12-.48-4.64h-.112l-2.64 6.624H5.792l-2.448-6.624H3.2l-.48 4.496-.256 3.264H1.072l1.072-10.272h1.888l.48 1.536 1.968 5.456h.128l2.08-5.504.48-1.488h1.872l.976 10.272Zm8.741-1.408.096.144-.112 1.264h-6.064l.112-3.088-.112-7.184h6.096l.096.144-.128 1.264-2.432-.064-1.952.016-.048 2.992 1.856.032 1.696-.048.112.128-.128 1.264-1.808-.048-1.744.032-.016 1.328.048 1.888 1.952.016 2.48-.08ZM31.4 45.477l.048 3.232H29.8l.08-3.088-.016-1.392-2.624-.016-2.4.016-.016 1.248.064 3.232h-1.632l.064-3.088-.064-7.184h1.648l-.048 4.416 2.512.032 2.48-.032-.048-4.416h1.68l-.08 7.04Zm10.88-7.168c1.311 0 2.325.443 3.04 1.328.714.875 1.071 2.117 1.071 3.728 0 1.75-.384 3.104-1.152 4.064-.757.95-1.84 1.424-3.248 1.424-1.226 0-2.192-.4-2.896-1.2-.704-.81-1.098-1.952-1.184-3.424l-.896-.016-.816.016-.016 1.248.064 3.232h-1.664l.08-3.088-.08-7.184h1.68l-.048 4.432.88.016.832-.016c.118-1.472.55-2.597 1.296-3.376.747-.79 1.766-1.184 3.056-1.184Zm-.145 9.264c.864 0 1.504-.31 1.92-.928.416-.63.624-1.616.624-2.96 0-1.397-.208-2.416-.624-3.056-.405-.65-1.04-.976-1.904-.976-.864 0-1.504.31-1.92.928-.405.619-.608 1.584-.608 2.896 0 1.419.203 2.459.608 3.12.406.65 1.04.976 1.904.976Z"/>
</svg>
