<svg xmlns="http://www.w3.org/2000/svg" width="1280" height="661" fill="none" viewBox="0 0 1280 661">
    <g clip-path="url(#clip0_2020_1384)">
        <path fill="url(#paint0_linear_2020_1384)" d="M1482.27-171.647 640.075 108.157-202.25-171.647h1684.52Z"/>
        <path stroke="#017BC8" stroke-miterlimit="10" stroke-width=".75" d="M1482.27-166.466 640.075 113.339-202.25-166.466h1684.52Z"/>
        <path fill="url(#paint1_linear_2020_1384)" d="M1482.27-208.078 640.075 71.727-202.25-208.078h1684.52Z"/>
        <path stroke="#017BC8" stroke-miterlimit="10" stroke-width=".75" d="M1482.27-202.276 640.075 77.529-202.25-202.276h1684.52Z"/>
        <path fill="url(#paint2_linear_2020_1384)" d="M1482.27-250.109 640.075 29.695-202.25-250.109h1684.52Z"/>
        <path stroke="#017BC8" stroke-miterlimit="10" stroke-width=".75" d="M1482.27-244.307 640.075 35.497-202.25-244.307h1684.52Z"/>
    </g>
    <defs>
        <linearGradient id="paint0_linear_2020_1384" x1="640.019" x2="640.019" y1="-171.647" y2="108.163" gradientUnits="userSpaceOnUse">
            <stop offset=".586" stop-color="#001C30" stop-opacity="0"/>
            <stop offset="1" stop-color="#0068B2"/>
        </linearGradient>
        <linearGradient id="paint1_linear_2020_1384" x1="640.019" x2="640.019" y1="-208.078" y2="71.733" gradientUnits="userSpaceOnUse">
            <stop offset=".586" stop-color="#001C30" stop-opacity="0"/>
            <stop offset="1" stop-color="#0068B2"/>
        </linearGradient>
        <linearGradient id="paint2_linear_2020_1384" x1="640.019" x2="640.019" y1="-250.109" y2="29.701" gradientUnits="userSpaceOnUse">
            <stop offset=".586" stop-color="#001C30" stop-opacity="0"/>
            <stop offset="1" stop-color="#0068B2"/>
        </linearGradient>
        <clipPath id="clip0_2020_1384">
            <path fill="#fff" d="M0 0h1280v661H0z"/>
        </clipPath>
    </defs>
</svg>
