<svg width="1920" height="2528" viewBox="0 0 1920 2528" fill="none" xmlns="http://www.w3.org/2000/svg">
<g clip-path="url(#clip0_2041_132)">
<path d="M-97.2363 -118.556L739.719 364.661L739.584 621.36" stroke="url(#paint0_linear_2041_132)" stroke-width="2"/>
<path d="M-97.2363 2632.63L739.719 2149.41L739.584 1892.72" stroke="url(#paint1_linear_2041_132)" stroke-width="2"/>
<path d="M519.478 748.201L739.757 621.103L959.969 748.243L960.039 1002.56L739.682 1129.79L519.469 1002.65" stroke="#D1D3D4" stroke-width="2"/>
<path d="M2017.24 -118.556L1180.28 364.661L1180.42 621.36" stroke="url(#paint2_linear_2041_132)" stroke-width="2"/>
<path d="M519.478 1511.29L739.757 1384.19L959.969 1511.33L960.039 1765.65L739.682 1892.88L519.469 1765.74" stroke="#D1D3D4" stroke-width="2"/>
<path d="M2017.24 2632.63L1180.28 2149.41L1180.42 1892.72" stroke="url(#paint3_linear_2041_132)" stroke-width="2"/>
<path d="M1400.52 748.201L1180.24 621.103L960.03 748.243L959.96 1002.56L1180.32 1129.79L1400.53 1002.65" stroke="#D1D3D4" stroke-width="2"/>
<path d="M1400.52 1511.29L1180.24 1384.19L960.03 1511.33L959.96 1765.65L1180.32 1892.88L1400.53 1765.74" stroke="#D1D3D4" stroke-width="2"/>
<path d="M1180.38 1129.79L960.165 1002.65L739.887 1129.75L739.878 1384.2L960.091 1511.34L1180.45 1384.11L1180.38 1129.79Z" stroke="#D1D3D4" stroke-width="2"/>
</g>
<defs>
<linearGradient id="paint0_linear_2041_132" x1="321.241" y1="-118.556" x2="321.241" y2="621.36" gradientUnits="userSpaceOnUse">
<stop offset="0.176666" stop-color="white"/>
<stop offset="1" stop-color="#D1D3D4"/>
</linearGradient>
<linearGradient id="paint1_linear_2041_132" x1="321.241" y1="2632.63" x2="321.241" y2="1892.72" gradientUnits="userSpaceOnUse">
<stop offset="0.18" stop-color="white"/>
<stop offset="1" stop-color="#D1D3D4"/>
</linearGradient>
<linearGradient id="paint2_linear_2041_132" x1="1598.76" y1="-118.556" x2="1598.76" y2="621.36" gradientUnits="userSpaceOnUse">
<stop offset="0.181666" stop-color="white"/>
<stop offset="1" stop-color="#D1D3D4"/>
</linearGradient>
<linearGradient id="paint3_linear_2041_132" x1="1598.76" y1="2632.63" x2="1598.76" y2="1892.72" gradientUnits="userSpaceOnUse">
<stop offset="0.18" stop-color="white"/>
<stop offset="1" stop-color="#D1D3D4"/>
</linearGradient>
<clipPath id="clip0_2041_132">
<rect width="1920" height="2528" fill="white"/>
</clipPath>
</defs>
</svg>
