<svg width="360" height="471" viewBox="0 0 360 471" fill="none" xmlns="http://www.w3.org/2000/svg">
<g clip-path="url(#clip0_2044_689)">
<path d="M165.392 132.158H113.324L87.2744 177.249L113.324 222.372H165.392L191.442 177.249L165.392 132.158Z" stroke="white"/>
<path d="M162.476 137.211H116.24L93.1084 177.251L116.24 217.32H162.476L185.608 177.251L162.476 137.211Z" fill="url(#paint0_linear_2044_689)" stroke="#0099FF"/>
<path d="M120.993 155.882C121.208 155.954 121.424 155.954 121.64 156.098C122.862 156.745 123.365 158.039 122.718 159.189C122.574 159.476 122.358 159.692 122.143 159.908C120.49 161.633 119.196 163.573 118.118 165.658C117.04 167.742 116.321 169.899 115.818 172.127C115.53 173.421 115.386 174.714 115.314 176.008C115.243 177.446 115.314 178.883 115.458 180.393C115.818 183.124 116.536 185.712 117.686 188.156C118.836 190.599 120.346 192.756 122.143 194.768C122.358 195.056 122.646 195.271 122.79 195.631C123.149 196.493 123.005 197.428 122.287 198.075C121.927 198.362 121.496 198.65 121.065 198.722C121.065 198.722 121.065 198.722 120.993 198.722C120.849 198.722 120.633 198.722 120.49 198.722H120.418C120.058 198.65 119.771 198.506 119.483 198.29C119.268 198.075 119.052 197.859 118.836 197.643C116.824 195.415 115.171 192.971 113.877 190.312C112.439 187.293 111.505 184.059 111.074 180.752C110.858 179.171 110.786 177.661 110.858 176.08C110.93 174.499 111.146 172.846 111.433 171.264C111.936 168.749 112.799 166.305 113.877 164.005C115.171 161.273 116.896 158.829 118.98 156.673C119.196 156.457 119.483 156.17 119.771 156.026C119.986 155.954 120.202 155.882 120.346 155.811C120.633 155.882 120.777 155.882 120.993 155.882Z" fill="white"/>
<path d="M157.722 198.65C157.435 198.578 157.219 198.506 156.932 198.434C155.71 197.788 155.422 196.566 155.925 195.487C156.069 195.2 156.285 195.056 156.5 194.841C158.153 193.116 159.447 191.247 160.525 189.162C161.604 187.078 162.394 184.85 162.897 182.549C163.185 181.256 163.329 179.89 163.401 178.524C163.472 177.374 163.401 176.296 163.329 175.146C163.041 172.127 162.25 169.18 160.957 166.449C159.807 163.861 158.297 161.633 156.357 159.692C156.069 159.405 155.781 159.045 155.71 158.542C155.494 157.68 155.925 156.745 156.716 156.242C157.003 156.027 157.291 155.955 157.65 155.883H157.722C157.866 155.883 158.082 155.883 158.225 155.883C158.225 155.883 158.225 155.883 158.297 155.883C158.657 155.955 159.016 156.098 159.232 156.314C159.447 156.53 159.735 156.745 159.95 157.033C161.963 159.189 163.616 161.633 164.91 164.293C166.348 167.311 167.282 170.546 167.713 173.924C167.857 175.434 167.929 176.943 167.857 178.452C167.785 180.106 167.569 181.759 167.21 183.412C166.635 186.143 165.701 188.731 164.407 191.247C163.113 193.762 161.46 196.062 159.447 198.075C159.232 198.291 158.944 198.434 158.657 198.506C158.513 198.506 158.441 198.578 158.297 198.578C158.082 198.65 157.866 198.65 157.722 198.65Z" fill="white"/>
<path d="M159.662 177.302C159.662 180.609 158.944 183.7 157.506 186.647C156.5 188.731 155.278 190.6 153.697 192.253C153.553 192.397 153.409 192.612 153.193 192.684C152.403 193.331 151.181 193.259 150.462 192.541C150.175 192.253 149.887 191.966 149.815 191.534C149.6 190.744 149.743 190.025 150.318 189.45C152.547 187.15 154.056 184.49 154.775 181.399C155.062 180.249 155.206 179.099 155.278 177.949C155.35 175.074 154.775 172.415 153.553 169.827C152.69 168.102 151.612 166.521 150.247 165.155C149.456 164.364 149.528 162.927 150.39 162.136C150.75 161.849 151.109 161.633 151.54 161.489C152.259 161.346 152.906 161.489 153.409 162.064C155.709 164.436 157.434 167.168 158.512 170.258C158.944 171.552 159.303 172.918 159.519 174.284C159.662 175.146 159.734 176.009 159.734 176.943C159.662 177.015 159.662 177.159 159.662 177.302Z" fill="white"/>
<path d="M126.671 161.418C127.246 161.418 127.749 161.634 128.18 162.065C128.54 162.424 128.827 162.784 128.899 163.287C129.043 164.006 128.827 164.652 128.324 165.156C125.952 167.671 124.371 170.546 123.724 173.997C123.508 174.931 123.436 175.937 123.436 176.872C123.365 181.256 124.802 185.138 127.605 188.516C127.893 188.875 128.18 189.163 128.468 189.45C129.259 190.241 129.187 191.607 128.396 192.397C128.037 192.685 127.677 192.972 127.174 193.044C126.455 193.188 125.808 193.044 125.305 192.469C123.005 190.169 121.352 187.438 120.274 184.347C119.771 182.909 119.411 181.4 119.268 179.891C119.196 179.1 119.124 178.381 119.124 177.59C119.052 173.925 119.914 170.546 121.568 167.312C122.574 165.371 123.796 163.646 125.305 162.137C125.593 161.634 126.096 161.418 126.671 161.418Z" fill="white"/>
<path d="M127.174 177.23C127.246 173.708 128.396 170.618 130.84 167.958C130.984 167.814 131.128 167.599 131.343 167.455C132.134 166.736 133.428 166.736 134.218 167.455C134.578 167.743 134.793 168.102 134.937 168.533C135.153 169.324 134.937 169.971 134.362 170.546C132.925 171.983 132.062 173.637 131.703 175.577C131.343 177.446 131.631 179.243 132.421 181.04C132.853 182.046 133.5 182.909 134.29 183.699C135.368 184.778 135.081 186.503 133.715 187.221C133.14 187.509 132.493 187.653 131.846 187.365C131.487 187.221 131.271 186.934 130.984 186.646C129.618 185.209 128.54 183.556 127.893 181.687C127.462 180.393 127.174 179.027 127.103 177.662C127.174 177.59 127.174 177.374 127.174 177.23Z" fill="white"/>
<path d="M151.54 177.302C151.468 180.896 150.246 183.986 147.802 186.646C147.659 186.79 147.515 186.933 147.371 187.077C146.652 187.796 145.359 187.724 144.568 187.005C144.28 186.718 143.993 186.358 143.849 185.927C143.633 185.136 143.849 184.418 144.424 183.771C145.502 182.693 146.221 181.471 146.724 180.033C147.443 177.733 147.299 175.505 146.293 173.348C145.79 172.342 145.215 171.48 144.424 170.689C143.705 169.97 143.562 168.892 144.137 168.029C144.64 167.239 145.718 166.736 146.58 167.023C146.94 167.095 147.227 167.311 147.515 167.598C149.527 169.611 150.821 171.983 151.396 174.786C151.468 175.648 151.54 176.439 151.54 177.302Z" fill="white"/>
<path d="M139.321 172.559C141.693 172.487 143.922 174.499 144.065 176.943C144.209 179.531 142.125 181.831 139.465 181.974C137.165 182.046 134.793 180.249 134.649 177.446C134.577 175.074 136.59 172.559 139.321 172.559Z" fill="white"/>
<path d="M319.002 137.451H272.767L249.635 177.492L272.767 217.56H319.002L342.134 177.492L319.002 137.451Z" fill="url(#paint1_linear_2044_689)" stroke="#0099FF"/>
<path d="M321.918 132.398H269.851L243.801 177.49L269.851 222.613H321.918L347.968 177.49L321.918 132.398Z" stroke="white"/>
<path d="M295.718 150.443C296.887 151.529 297.973 152.531 299.142 153.533C305.155 159.045 311.084 164.473 317.096 169.984C317.43 170.235 317.514 170.569 317.514 170.986C317.514 172.99 317.514 174.911 317.514 176.915C316.512 176.915 315.51 176.915 314.508 176.915C314.508 176.832 314.508 176.748 314.508 176.665C314.508 175.078 314.508 173.491 314.508 171.988C314.508 171.905 314.424 171.738 314.341 171.654C308.161 165.976 301.981 160.297 295.802 154.535L295.718 154.452C295.635 154.452 295.635 154.535 295.551 154.535C289.372 160.214 283.192 165.892 277.013 171.571C276.929 171.654 276.846 171.821 276.846 171.905C276.846 173.575 276.846 175.245 276.846 176.915C275.844 176.915 274.841 176.915 273.839 176.915C273.839 176.832 273.839 176.748 273.839 176.665C273.839 174.661 273.839 172.656 273.839 170.652C273.839 170.485 273.923 170.318 274.006 170.235C279.935 164.807 285.948 159.379 291.877 153.867C293.046 152.782 294.215 151.696 295.384 150.61C295.551 150.527 295.635 150.527 295.718 150.443Z" fill="white"/>
<path d="M273.921 198.962C273.921 195.538 273.921 192.198 273.921 188.857C274.923 188.857 275.842 188.857 276.927 188.857C276.927 191.196 276.927 193.617 276.927 195.956C289.453 195.956 301.979 195.956 314.589 195.956C314.589 193.617 314.589 191.196 314.589 188.857C315.591 188.857 316.593 188.857 317.595 188.857C317.595 192.198 317.595 195.622 317.595 198.962C302.982 198.962 288.451 198.962 273.921 198.962Z" fill="white"/>
<path d="M295.55 179.003C295.634 178.669 295.717 178.335 295.801 178.001C296.385 175.83 297.471 173.993 299.141 172.406C300.561 171.154 302.147 170.318 303.985 169.984C304.82 169.817 305.655 169.734 306.573 169.65C306.657 169.65 306.824 169.734 306.907 169.817C307.241 170.235 307.575 170.569 307.742 171.07C308.661 172.824 308.828 174.744 308.828 176.665C308.327 176.582 307.742 176.415 307.241 176.331C303.985 175.83 300.978 176.498 298.473 178.753C298.39 178.836 298.306 178.92 298.223 178.92C298.056 179.17 297.805 179.254 297.471 179.17C296.886 179.17 296.218 179.087 295.55 179.003Z" fill="white"/>
<path d="M300.311 193.367C300.645 192.114 300.812 190.862 300.812 189.609C300.728 187.02 299.977 184.766 298.14 182.845C297.806 182.511 297.722 182.177 297.806 181.76C297.889 181.175 297.973 180.59 298.056 180.006C298.307 180.089 298.557 180.089 298.808 180.173C300.979 180.757 302.983 181.843 304.486 183.513C305.906 185.1 306.741 186.937 307.075 189.025C307.158 189.693 307.242 190.277 307.242 190.945C307.242 191.112 307.242 191.279 307.075 191.363C306.49 191.947 305.739 192.365 304.904 192.616C303.484 193.2 301.897 193.367 300.311 193.367Z" fill="white"/>
<path d="M292.043 168.146C291.709 168.982 291.542 169.733 291.542 170.568C291.291 173.658 292.043 176.414 294.214 178.752C294.381 178.919 294.465 179.086 294.465 179.337C294.381 180.005 294.298 180.673 294.214 181.341C293.212 181.174 292.293 180.84 291.375 180.422C289.204 179.42 287.45 177.833 286.281 175.662C285.613 174.41 285.279 173.073 285.112 171.654C285.028 171.236 285.028 170.819 285.028 170.401C285.028 170.318 285.112 170.151 285.195 170.067C285.863 169.399 286.698 168.982 287.534 168.731C288.953 168.313 290.456 168.146 291.959 168.146C291.876 168.146 291.959 168.146 292.043 168.146Z" fill="white"/>
<path d="M283.608 185.016C286.781 186.269 290.957 185.601 293.545 183.429C293.796 183.262 293.963 183.012 294.213 182.845C294.297 182.678 294.464 182.678 294.631 182.678C295.299 182.761 296.051 182.845 296.802 182.928C296.719 183.262 296.635 183.596 296.552 183.93C295.8 186.436 294.464 188.607 292.209 190.11C290.873 191.028 289.37 191.613 287.783 191.864C287.115 191.947 286.531 192.031 285.863 192.031C285.779 192.031 285.612 191.947 285.529 191.947C284.861 191.279 284.443 190.444 284.192 189.609C283.691 188.189 283.608 186.686 283.608 185.183C283.608 185.099 283.608 185.099 283.608 185.016Z" fill="white"/>
<path d="M281.271 179.253C281.438 178.836 281.605 178.502 281.772 178.084C282.941 179.504 284.026 180.84 285.195 182.176C283.442 182.51 281.688 182.76 279.851 183.094C280.018 182.677 280.185 182.259 280.268 181.842C277.262 181.007 272.335 181.257 269.245 185.015C268.494 184.514 267.826 183.93 267.074 183.428C267.241 183.178 267.408 183.011 267.575 182.844C269.496 180.84 271.834 179.587 274.506 179.086C276.678 178.669 278.932 178.752 281.103 179.337C281.187 179.253 281.187 179.253 281.271 179.253Z" fill="white"/>
<path d="M320.101 180.589C319.851 180.255 319.6 180.005 319.35 179.671C321.103 179.337 322.857 179.086 324.694 178.752C324.026 180.422 323.358 182.092 322.69 183.846C322.44 183.512 322.106 183.178 321.855 182.76C321.771 182.76 321.688 182.844 321.688 182.844C319.433 183.929 317.095 184.347 314.673 184.096C312.168 183.929 309.83 183.178 307.659 182.092C307.575 182.092 307.575 182.009 307.492 182.009C307.909 181.174 308.243 180.422 308.661 179.587C309.412 179.921 310.164 180.172 310.832 180.506C312.502 181.09 314.256 181.508 316.093 181.508C317.429 181.508 318.682 181.257 319.851 180.756C319.851 180.673 319.934 180.673 320.101 180.589Z" fill="white"/>
<path d="M243.454 177.504H191.387L165.337 222.595L191.387 267.718H243.454L269.504 222.595L243.454 177.504Z" stroke="white"/>
<path d="M239.913 183.641H194.928L172.422 222.598L194.928 261.582H239.913L262.419 222.598L239.913 183.641Z" fill="url(#paint2_linear_2044_689)" stroke="#0099FF"/>
<path d="M241.193 231.287C238.097 231.287 234.994 231.287 231.898 231.294C230.713 231.294 229.521 231.294 228.335 231.294C228.235 231.294 228.127 231.294 228.005 231.294C227.998 231.207 227.983 231.135 227.983 231.063C227.983 229.891 227.991 228.72 227.976 227.549C227.976 227.332 228.055 227.289 228.249 227.296C228.817 227.303 229.384 227.296 229.959 227.296C229.959 224.867 229.959 222.452 229.959 220.016C227.545 220.016 225.139 220.016 222.711 220.016C222.711 220.652 222.711 221.303 222.711 221.968C221.382 221.968 220.082 221.968 218.753 221.968C218.753 217.558 218.753 213.141 218.753 208.709C220.06 208.709 221.36 208.709 222.689 208.709C222.689 209.352 222.689 209.996 222.689 210.683C222.797 210.683 222.876 210.683 222.955 210.683C226.619 210.683 230.275 210.683 233.938 210.683C236.847 210.683 239.218 213.061 239.218 215.982C239.218 219.633 239.218 223.284 239.218 226.927C239.218 227.036 239.218 227.151 239.218 227.274C239.9 227.274 240.547 227.274 241.201 227.274C241.193 228.619 241.193 229.949 241.193 231.287Z" fill="white"/>
<path d="M193.641 199.396C198.03 199.396 202.426 199.396 206.836 199.396C206.836 200.719 206.836 202.035 206.836 203.373C206.19 203.373 205.543 203.373 204.882 203.373C204.882 205.816 204.882 208.224 204.882 210.66C207.289 210.66 209.695 210.66 212.123 210.66C212.123 210.031 212.123 209.38 212.123 208.715C213.459 208.715 214.767 208.715 216.095 208.715C216.095 213.125 216.095 217.535 216.095 221.967C214.788 221.967 213.481 221.967 212.145 221.967C212.145 221.316 212.145 220.666 212.145 219.993C211.57 219.993 211.024 219.993 210.471 219.993C207.282 219.993 204.099 219.993 200.91 219.993C197.994 219.993 195.623 217.615 195.623 214.672C195.623 211.022 195.623 207.371 195.623 203.727C195.623 203.619 195.623 203.51 195.623 203.351C194.941 203.351 194.294 203.351 193.641 203.351C193.641 202.035 193.641 200.712 193.641 199.396Z" fill="white"/>
<path d="M234.6 234.59C235.153 235.537 235.684 236.419 236.187 237.315C236.877 238.544 237.502 239.802 237.976 241.133C238.687 243.099 237.509 245.138 235.699 245.738C235.562 245.781 235.411 245.803 235.268 245.81C234.894 245.817 234.528 245.788 234.154 245.817C233.472 245.875 232.912 245.593 232.394 245.203C231.252 244.342 230.455 242.759 231.274 240.771C231.956 239.101 232.818 237.525 233.745 235.985C234.011 235.53 234.291 235.096 234.6 234.59Z" fill="white"/>
<path d="M165.392 222.326H113.324L87.2744 267.417L113.324 312.54H165.392L191.442 267.417L165.392 222.326Z" stroke="white"/>
<path d="M162.059 228.102H116.657L93.9419 267.42L116.657 306.767H162.059L184.774 267.42L162.059 228.102Z" fill="url(#paint3_linear_2044_689)" stroke="#0099FF"/>
<path d="M139.395 256.748C142.681 256.748 145.979 256.793 149.265 256.725C150.846 256.691 151.67 257.798 151.67 259.119C151.647 264.574 151.636 270.028 151.67 275.482C151.681 276.769 150.721 277.876 149.276 277.865C142.636 277.819 135.996 277.842 129.356 277.842C127.956 277.842 127.064 276.961 127.064 275.572C127.064 270.062 127.064 264.551 127.064 259.04C127.064 257.584 127.877 256.748 129.311 256.748C132.676 256.748 136.03 256.759 139.395 256.748ZM137.995 270.22C137.995 270.559 137.995 270.897 137.995 271.236C137.995 271.597 137.984 271.947 137.995 272.309C138.04 273.314 138.661 273.845 139.61 273.72C140.276 273.63 140.716 273.043 140.716 272.185C140.716 270.909 140.728 269.633 140.705 268.357C140.705 268.006 140.784 267.781 141.089 267.566C142.049 266.9 142.444 265.533 142.06 264.404C141.631 263.151 140.547 262.462 139.316 262.439C138.176 262.417 136.979 263.32 136.64 264.348C136.245 265.556 136.662 266.866 137.645 267.622C137.814 267.758 137.95 268.029 137.961 268.255C138.029 268.899 137.995 269.553 137.995 270.22Z" fill="white"/>
<path d="M148.498 255.799C147.086 255.799 145.731 255.799 144.331 255.799C144.331 254.805 144.274 253.823 144.342 252.851C144.5 250.514 142.761 249.023 141.067 248.606C138.933 248.075 136.968 248.346 135.353 249.972C134.71 250.616 134.382 251.44 134.382 252.355C134.371 253.484 134.382 254.613 134.382 255.776C133.005 255.776 131.649 255.776 130.261 255.776C130.249 255.663 130.215 255.539 130.215 255.415C130.272 253.823 130.125 252.196 130.43 250.649C130.972 247.86 132.869 246.042 135.421 244.969C138.335 243.75 141.293 243.829 144.082 245.353C146.917 246.912 148.565 249.26 148.509 252.626C148.486 253.664 148.498 254.692 148.498 255.799Z" fill="white"/>
<path d="M117.714 280.755C117.714 279.535 117.714 278.372 117.714 277.209C117.714 275.888 118.606 274.985 119.939 274.973C120.82 274.962 121.712 274.962 122.592 274.973C122.931 274.973 123.18 274.928 123.394 274.612C123.778 274.07 124.354 273.946 124.93 274.172C125.528 274.409 125.799 274.838 125.777 275.538C125.754 276.136 125.416 276.554 124.783 276.746C124.252 276.904 123.71 276.678 123.304 276.193C123.18 276.046 122.954 275.922 122.773 275.911C121.757 275.888 120.74 275.888 119.724 275.899C119.081 275.911 118.651 276.317 118.64 276.938C118.629 278.09 118.651 279.231 118.629 280.382C118.618 280.789 118.877 280.823 119.126 280.936C120.21 281.387 120.82 282.607 120.537 283.759C120.255 284.911 119.069 285.746 117.917 285.611C116.743 285.475 115.783 284.504 115.727 283.262C115.682 282.279 116.235 281.263 117.398 280.834C117.477 280.823 117.567 280.8 117.714 280.755ZM118.166 284.696C119.081 284.696 119.747 284.052 119.735 283.16C119.724 282.336 119.024 281.625 118.2 281.613C117.33 281.602 116.63 282.279 116.619 283.16C116.607 284.064 117.251 284.696 118.166 284.696Z" fill="white"/>
<path d="M160.998 278.712C160.998 278.96 161.009 279.197 160.998 279.446C160.941 280.202 160.941 280.801 161.89 281.185C162.872 281.591 163.222 282.957 162.861 283.962C162.477 285.024 161.427 285.713 160.32 285.622C159.281 285.532 158.31 284.651 158.152 283.635C157.96 282.427 158.536 281.377 159.665 280.925C159.97 280.801 160.094 280.643 160.083 280.315C160.06 279.242 160.083 278.169 160.072 277.097C160.072 276.318 159.676 275.922 158.897 275.911C157.915 275.911 156.944 275.888 155.961 275.922C155.758 275.934 155.51 276.069 155.385 276.227C154.832 276.905 153.929 277.006 153.308 276.43C152.811 275.979 152.788 274.974 153.274 274.488C153.872 273.89 154.764 273.912 155.295 274.601C155.532 274.906 155.781 274.996 156.142 274.985C157.023 274.962 157.915 274.974 158.796 274.985C160.094 274.996 160.986 275.9 160.998 277.187C161.009 277.695 160.998 278.203 160.998 278.712ZM162.093 283.206C162.104 282.336 161.427 281.614 160.569 281.58C159.789 281.546 158.988 282.336 158.976 283.161C158.965 283.974 159.676 284.708 160.501 284.742C161.359 284.776 162.082 284.087 162.093 283.206Z" fill="white"/>
<path d="M148.18 285.881C149.174 286.163 149.84 286.807 150.1 287.857C150.428 289.167 149.287 290.692 147.943 290.725C146.588 290.759 145.583 290.059 145.29 288.862C145.007 287.71 145.64 286.57 146.882 286.028C147.153 285.904 147.288 285.779 147.277 285.452C147.254 284.413 147.277 283.385 147.266 282.347C147.254 281.477 146.803 281.025 145.944 281.014C145.064 281.003 144.183 281.014 143.291 281.003C142.929 280.991 142.67 281.082 142.444 281.409C142.105 281.906 141.529 282.064 140.987 281.872C140.456 281.68 140.095 281.319 140.05 280.72C139.993 280.111 140.242 279.659 140.773 279.365C141.337 279.049 142.071 279.207 142.466 279.783C142.681 280.088 142.918 280.167 143.257 280.167C144.194 280.156 145.131 280.156 146.08 280.156C147.266 280.167 148.09 281.003 148.101 282.177C148.113 283.363 148.113 284.549 148.113 285.734C148.146 285.779 148.158 285.813 148.18 285.881ZM149.231 288.286C149.231 287.383 148.564 286.739 147.65 286.762C146.825 286.773 146.114 287.496 146.114 288.309C146.114 289.145 146.87 289.89 147.706 289.879C148.609 289.856 149.242 289.212 149.231 288.286Z" fill="white"/>
<path d="M131.434 283.894C131.434 284.086 131.446 284.267 131.434 284.459C131.367 285.283 131.401 285.915 132.383 286.356C133.399 286.807 133.704 288.129 133.309 289.201C132.925 290.24 131.886 290.839 130.633 290.726C129.673 290.635 128.769 289.732 128.577 288.682C128.397 287.688 128.995 286.536 130.012 286.119C130.463 285.927 130.621 285.701 130.61 285.215C130.565 284.199 130.587 283.183 130.599 282.166C130.61 281.026 131.446 280.19 132.586 280.179C133.523 280.167 134.461 280.167 135.409 280.179C135.771 280.19 136.03 280.111 136.245 279.784C136.584 279.287 137.193 279.129 137.758 279.298C138.221 279.433 138.628 279.964 138.661 280.484C138.695 281.105 138.413 281.579 137.848 281.827C137.261 282.087 136.64 281.895 136.177 281.376C136.019 281.195 135.737 281.048 135.5 281.037C134.596 281.003 133.693 281.014 132.789 281.026C131.897 281.037 131.457 281.477 131.434 282.381C131.423 282.878 131.434 283.386 131.434 283.894ZM129.481 288.343C129.492 289.224 130.147 289.879 131.017 289.879C131.863 289.879 132.62 289.134 132.609 288.309C132.597 287.462 131.863 286.751 131.005 286.762C130.102 286.762 129.47 287.428 129.481 288.343Z" fill="white"/>
<path d="M163.967 270.162C162.939 270.162 162.07 269.586 161.719 268.615C161.584 268.254 161.415 268.13 161.031 268.13C159.416 268.141 157.801 268.141 156.175 268.13C155.836 268.13 155.599 268.197 155.373 268.502C154.831 269.247 153.95 269.293 153.329 268.694C152.787 268.163 152.799 267.249 153.352 266.729C153.973 266.165 154.865 266.289 155.43 266.978C155.565 267.136 155.814 267.283 156.006 267.283C157.699 267.305 159.393 267.283 161.087 267.305C161.426 267.305 161.573 267.192 161.697 266.876C162.115 265.803 163.199 265.137 164.215 265.284C165.356 265.442 166.27 266.311 166.406 267.463C166.564 268.841 165.502 270.14 163.967 270.162ZM165.491 267.7C165.491 266.808 164.87 266.187 163.967 266.187C163.075 266.187 162.352 266.876 162.363 267.723C162.374 268.559 163.131 269.304 163.955 269.304C164.825 269.304 165.502 268.593 165.491 267.7Z" fill="white"/>
<path d="M114.835 265.262C115.862 265.352 116.641 265.86 117.037 266.865C117.161 267.193 117.319 267.294 117.646 267.294C119.318 267.283 121 267.306 122.671 267.272C122.886 267.272 123.157 267.114 123.304 266.944C123.88 266.278 124.794 266.176 125.382 266.741C125.924 267.272 125.924 268.187 125.37 268.706C124.749 269.293 123.902 269.18 123.304 268.48C123.146 268.299 122.852 268.141 122.626 268.141C120.989 268.119 119.351 268.141 117.714 268.13C117.341 268.13 117.161 268.243 117.014 268.604C116.562 269.722 115.557 270.298 114.428 270.151C113.355 270.016 112.486 269.112 112.316 267.961C112.113 266.639 113.389 265.25 114.835 265.262ZM113.22 267.678C113.208 268.604 113.829 269.282 114.71 269.316C115.535 269.338 116.336 268.548 116.336 267.712C116.336 266.888 115.625 266.21 114.767 266.199C113.863 266.176 113.231 266.786 113.22 267.678Z" fill="white"/>
<path d="M87.4123 177.504H35.3447L9.29492 222.595L35.3447 267.718H87.4123L113.462 222.595L87.4123 177.504Z" stroke="white"/>
<path d="M84.0492 183.332H38.708L16.0234 222.598L38.708 261.892H84.0492L106.734 222.598L84.0492 183.332Z" fill="url(#paint4_linear_2044_689)" stroke="#0099FF"/>
<path d="M58.1503 222.122C55.4189 222.122 52.7372 222.122 50.0057 222.122C50.0741 221.984 50.1177 221.883 50.1675 221.783C54.1185 214.192 58.0694 206.608 62.0142 199.017C62.1386 198.785 62.2631 198.697 62.5306 198.697C66.4007 198.71 70.2646 198.704 74.1347 198.704C74.2467 198.704 74.3587 198.704 74.5453 198.704C70.9366 204.166 67.3589 209.59 63.7439 215.059C67.2718 215.059 70.7375 215.059 74.3089 215.059C64.7519 225.594 55.2509 236.06 45.7498 246.526C45.7312 246.514 45.7125 246.501 45.6938 246.489C49.8377 238.377 53.9878 230.271 58.1503 222.122Z" fill="white"/>
<path d="M51.2944 242.426C52.1531 241.478 52.9557 240.593 53.7584 239.714C58.6364 241.817 63.5518 241.968 68.4548 239.934C72.6422 238.195 75.7718 235.238 77.8376 231.176C82.0996 222.806 79.4864 211.982 70.8689 206.727C71.5035 205.767 72.1382 204.806 72.8102 203.789C79.0695 207.952 82.7218 213.69 83.2632 221.249C83.9289 230.453 78.9326 238.427 71.7089 242.251C64.9891 245.804 58.176 245.71 51.2944 242.426Z" fill="white"/>
<path d="M49.1729 236.72C48.6378 237.769 48.1027 238.817 47.5614 239.866C41.8247 235.383 37.9857 226.894 39.9581 217.935C42.1109 208.178 50.4111 201.366 59.6197 200.676C59.5823 200.77 59.5512 200.852 59.5077 200.927C58.9353 202.026 58.3691 203.131 57.778 204.223C57.7033 204.355 57.5415 204.493 57.3984 204.524C52.4768 205.692 48.6192 208.398 45.8504 212.661C44.2389 215.141 43.2993 217.879 43.0193 220.836C42.5465 225.928 43.8966 230.479 47.0699 234.466C47.6361 235.182 48.3143 235.81 48.9427 236.475C49.0174 236.563 49.092 236.632 49.1729 236.72Z" fill="white"/>
<g filter="url(#filter0_f_2044_689)">
<circle cx="34.284" cy="178.019" r="4.54673" fill="white"/>
</g>
<g filter="url(#filter1_f_2044_689)">
<circle cx="87.2655" cy="268.232" r="4.54673" fill="white"/>
</g>
<g filter="url(#filter2_f_2044_689)">
<circle cx="165.337" cy="311.312" r="4.54673" fill="white"/>
</g>
<g filter="url(#filter3_f_2044_689)">
<circle cx="243.801" cy="267.297" r="4.54673" fill="white"/>
</g>
<g filter="url(#filter4_f_2044_689)">
<circle cx="320.64" cy="222.371" r="4.54673" fill="white"/>
</g>
<g filter="url(#filter5_f_2044_689)">
<circle cx="347.968" cy="177.101" r="4.54673" fill="white"/>
</g>
<g filter="url(#filter6_f_2044_689)">
<circle cx="322.142" cy="132.158" r="4.54673" fill="white"/>
</g>
<g filter="url(#filter7_f_2044_689)">
<circle cx="86.0467" cy="176.793" r="4.54673" fill="white"/>
</g>
<g filter="url(#filter8_f_2044_689)">
<circle cx="34.8875" cy="268.232" r="4.54673" fill="white"/>
</g>
<g filter="url(#filter9_f_2044_689)">
<circle cx="112.295" cy="132.158" r="4.54673" fill="white"/>
</g>
</g>
<defs>
<filter id="filter0_f_2044_689" x="23.7373" y="167.473" width="21.0933" height="21.0938" filterUnits="userSpaceOnUse" color-interpolation-filters="sRGB">
<feFlood flood-opacity="0" result="BackgroundImageFix"/>
<feBlend mode="normal" in="SourceGraphic" in2="BackgroundImageFix" result="shape"/>
<feGaussianBlur stdDeviation="3" result="effect1_foregroundBlur_2044_689"/>
</filter>
<filter id="filter1_f_2044_689" x="76.7188" y="257.686" width="21.0933" height="21.0938" filterUnits="userSpaceOnUse" color-interpolation-filters="sRGB">
<feFlood flood-opacity="0" result="BackgroundImageFix"/>
<feBlend mode="normal" in="SourceGraphic" in2="BackgroundImageFix" result="shape"/>
<feGaussianBlur stdDeviation="3" result="effect1_foregroundBlur_2044_689"/>
</filter>
<filter id="filter2_f_2044_689" x="154.79" y="300.766" width="21.0933" height="21.0938" filterUnits="userSpaceOnUse" color-interpolation-filters="sRGB">
<feFlood flood-opacity="0" result="BackgroundImageFix"/>
<feBlend mode="normal" in="SourceGraphic" in2="BackgroundImageFix" result="shape"/>
<feGaussianBlur stdDeviation="3" result="effect1_foregroundBlur_2044_689"/>
</filter>
<filter id="filter3_f_2044_689" x="233.254" y="256.75" width="21.0933" height="21.0938" filterUnits="userSpaceOnUse" color-interpolation-filters="sRGB">
<feFlood flood-opacity="0" result="BackgroundImageFix"/>
<feBlend mode="normal" in="SourceGraphic" in2="BackgroundImageFix" result="shape"/>
<feGaussianBlur stdDeviation="3" result="effect1_foregroundBlur_2044_689"/>
</filter>
<filter id="filter4_f_2044_689" x="310.094" y="211.824" width="21.0933" height="21.0938" filterUnits="userSpaceOnUse" color-interpolation-filters="sRGB">
<feFlood flood-opacity="0" result="BackgroundImageFix"/>
<feBlend mode="normal" in="SourceGraphic" in2="BackgroundImageFix" result="shape"/>
<feGaussianBlur stdDeviation="3" result="effect1_foregroundBlur_2044_689"/>
</filter>
<filter id="filter5_f_2044_689" x="337.421" y="166.555" width="21.0933" height="21.0938" filterUnits="userSpaceOnUse" color-interpolation-filters="sRGB">
<feFlood flood-opacity="0" result="BackgroundImageFix"/>
<feBlend mode="normal" in="SourceGraphic" in2="BackgroundImageFix" result="shape"/>
<feGaussianBlur stdDeviation="3" result="effect1_foregroundBlur_2044_689"/>
</filter>
<filter id="filter6_f_2044_689" x="311.596" y="121.611" width="21.0933" height="21.0938" filterUnits="userSpaceOnUse" color-interpolation-filters="sRGB">
<feFlood flood-opacity="0" result="BackgroundImageFix"/>
<feBlend mode="normal" in="SourceGraphic" in2="BackgroundImageFix" result="shape"/>
<feGaussianBlur stdDeviation="3" result="effect1_foregroundBlur_2044_689"/>
</filter>
<filter id="filter7_f_2044_689" x="75.5" y="166.246" width="21.0933" height="21.0938" filterUnits="userSpaceOnUse" color-interpolation-filters="sRGB">
<feFlood flood-opacity="0" result="BackgroundImageFix"/>
<feBlend mode="normal" in="SourceGraphic" in2="BackgroundImageFix" result="shape"/>
<feGaussianBlur stdDeviation="3" result="effect1_foregroundBlur_2044_689"/>
</filter>
<filter id="filter8_f_2044_689" x="24.3408" y="257.686" width="21.0933" height="21.0938" filterUnits="userSpaceOnUse" color-interpolation-filters="sRGB">
<feFlood flood-opacity="0" result="BackgroundImageFix"/>
<feBlend mode="normal" in="SourceGraphic" in2="BackgroundImageFix" result="shape"/>
<feGaussianBlur stdDeviation="3" result="effect1_foregroundBlur_2044_689"/>
</filter>
<filter id="filter9_f_2044_689" x="101.748" y="121.611" width="21.0933" height="21.0938" filterUnits="userSpaceOnUse" color-interpolation-filters="sRGB">
<feFlood flood-opacity="0" result="BackgroundImageFix"/>
<feBlend mode="normal" in="SourceGraphic" in2="BackgroundImageFix" result="shape"/>
<feGaussianBlur stdDeviation="3" result="effect1_foregroundBlur_2044_689"/>
</filter>
<linearGradient id="paint0_linear_2044_689" x1="139.358" y1="137.211" x2="139.358" y2="217.32" gradientUnits="userSpaceOnUse">
<stop offset="0.31" stop-color="#017BC8"/>
<stop offset="1" stop-color="#003C62"/>
</linearGradient>
<linearGradient id="paint1_linear_2044_689" x1="295.884" y1="137.451" x2="295.884" y2="217.56" gradientUnits="userSpaceOnUse">
<stop offset="0.31" stop-color="#017BC8"/>
<stop offset="1" stop-color="#003C62"/>
</linearGradient>
<linearGradient id="paint2_linear_2044_689" x1="217.421" y1="183.641" x2="217.421" y2="261.582" gradientUnits="userSpaceOnUse">
<stop offset="0.31" stop-color="#017BC8"/>
<stop offset="1" stop-color="#003C62"/>
</linearGradient>
<linearGradient id="paint3_linear_2044_689" x1="139.358" y1="228.102" x2="139.358" y2="306.767" gradientUnits="userSpaceOnUse">
<stop offset="0.31" stop-color="#017BC8"/>
<stop offset="1" stop-color="#003C62"/>
</linearGradient>
<linearGradient id="paint4_linear_2044_689" x1="61.3786" y1="183.332" x2="61.3786" y2="261.892" gradientUnits="userSpaceOnUse">
<stop offset="0.31" stop-color="#017BC8"/>
<stop offset="1" stop-color="#003C62"/>
</linearGradient>
<clipPath id="clip0_2044_689">
<rect width="360" height="471" fill="white"/>
</clipPath>
</defs>
</svg>
