<svg width="16" height="16" viewBox="0 0 16 16" fill="none" xmlns="http://www.w3.org/2000/svg">
<g clip-path="url(#clip0_0_10)">
<path d="M15.655 10.6024C15.5769 10.8106 15.4467 10.9929 15.2905 11.1231C15.1083 11.2793 14.9 11.3574 14.6917 11.3834L2.40313 13.3621C2.19485 13.3881 1.96054 13.3881 1.75226 13.284C1.54398 13.2059 1.36173 13.0757 1.23155 12.8935L0.4505 11.9041C0.580676 12.0603 0.762922 12.2165 0.971203 12.2947C1.17948 12.3728 1.4138 12.3988 1.62208 12.3728L15.8373 10.0817L15.655 10.6024Z" fill="url(#paint0_linear_0_10)"/>
<path d="M15.2905 9.22253C15.1603 9.01425 14.9781 8.85804 14.7438 8.7539C14.5094 8.64976 14.2751 8.62372 14.0408 8.64976L2.35105 10.5243L2.58536 9.50892C2.63743 9.2746 2.76761 9.06632 2.94985 8.88407C3.1321 8.70183 3.36642 8.59769 3.60073 8.57165L13.8846 6.90541L13.3379 6.07228C13.2077 5.864 13.0254 5.70779 12.7911 5.60365C12.5568 5.49951 12.3225 5.47347 12.0882 5.49951L3.2102 6.93144L3.44452 5.91607C3.49659 5.68175 3.62677 5.47347 3.80901 5.29123C3.99126 5.10898 4.22557 5.00484 4.45989 4.97881L11.9059 3.78119L11.5154 3.18238C11.3852 2.9741 11.203 2.81789 10.9687 2.71375C10.7344 2.60961 10.5 2.58358 10.2657 2.60961L3.49659 3.70309C3.02796 3.78119 2.58536 3.98947 2.22087 4.32793C1.85638 4.66638 1.62206 5.10898 1.49189 5.55158L0.216166 10.8888C0.112026 11.2793 0.216167 11.6959 0.502553 12.0083C0.788939 12.3207 1.2055 12.4509 1.59603 12.3988L15.8112 10.1077L15.2905 9.22253Z" fill="url(#paint1_linear_0_10)"/>
<path d="M3.47064 5.91615C3.52271 5.68183 3.65289 5.47355 3.83513 5.2913C4.01738 5.10906 4.2517 5.00492 4.48601 4.97888L3.83513 5.08302C3.60082 5.10906 3.39254 5.2132 3.18426 5.39544C3.00201 5.57769 2.87183 5.78597 2.81976 6.02029L2.58545 7.03566L3.23633 6.93152L3.47064 5.91615Z" fill="url(#paint2_linear_0_10)"/>
<path d="M11.5935 3.28662L4.61607 4.40613C4.38175 4.43217 4.14743 4.56234 3.96519 4.71855C3.78294 4.9008 3.65277 5.10908 3.6007 5.3434L3.47052 5.91617C3.52259 5.68185 3.65277 5.47357 3.83501 5.29133C4.01726 5.10908 4.25157 5.00494 4.48589 4.9789L11.9059 3.78129L11.5935 3.28662Z" fill="url(#paint3_linear_0_10)"/>
<path d="M3.39246 6.28059L10.7864 5.08297C10.9947 5.05694 11.203 4.9528 11.3852 4.82262C11.5675 4.66641 11.6977 4.48416 11.7497 4.30192L11.932 3.80725L4.48593 5.00487C4.25162 5.0309 4.04333 5.13504 3.83505 5.31729C3.65281 5.49953 3.52263 5.70782 3.47056 5.94213L3.39246 6.28059Z" fill="url(#paint4_linear_0_10)"/>
<path d="M3.86106 4.27577L11.4633 3.05212L11.5935 3.28644L3.78296 4.53613L3.86106 4.27577Z" fill="url(#paint5_linear_0_10)"/>
<path d="M11.9319 3.80725L4.48589 5.00487C4.25157 5.0309 4.04329 5.13504 3.83501 5.31729C3.65277 5.49953 3.52259 5.70782 3.47052 5.94213L3.52259 5.73385L11.6976 4.40606L11.9319 3.80725Z" fill="url(#paint6_linear_0_10)"/>
<path d="M15.5249 9.56091L0.476562 11.9822C0.476562 11.9822 0.476563 12.0082 0.502598 12.0082C0.788985 12.3206 1.20555 12.4248 1.59607 12.3727L15.8633 10.0816L15.5249 9.56091Z" fill="url(#paint7_linear_0_10)"/>
<path d="M15.8372 10.0817L0.919067 12.4769L1.30959 12.9976L15.6289 10.6805L15.8372 10.0817Z" fill="url(#paint8_linear_0_10)"/>
<path d="M15.3685 9.35266L0.346252 11.7739C0.398323 11.852 0.450394 11.9301 0.502464 11.9822L15.4987 9.56094L15.3685 9.35266Z" fill="url(#paint9_linear_0_10)"/>
<path d="M2.61136 9.53504C2.66343 9.30073 2.79361 9.09245 2.97586 8.9102C3.1581 8.72796 3.39242 8.62381 3.62673 8.59778L2.97586 8.70192C2.74154 8.72795 2.53326 8.8321 2.32498 9.01434C2.14273 9.19659 2.01256 9.40487 1.96049 9.63918L1.70013 10.6546L2.35101 10.5504L2.61136 9.53504Z" fill="url(#paint10_linear_0_10)"/>
<path d="M13.5722 6.43677L3.75694 8.02491C3.52262 8.05094 3.2883 8.18112 3.10606 8.33733C2.92381 8.51958 2.79364 8.72786 2.74156 8.96217L2.61139 9.53495C2.66346 9.30063 2.7676 9.06631 2.97588 8.9101C3.15813 8.72786 3.39244 8.62372 3.62676 8.59768L13.8846 6.95747L13.5722 6.43677Z" fill="url(#paint11_linear_0_10)"/>
<path d="M2.50714 9.87333L12.7389 8.23312C12.9472 8.20708 13.1555 8.10294 13.3378 7.97277C13.52 7.81656 13.6502 7.63431 13.7022 7.45206L13.8845 6.9574L3.60062 8.62365C3.3663 8.64968 3.15802 8.75382 2.94974 8.93607C2.76749 9.11831 2.63732 9.32659 2.58525 9.56091L2.50714 9.87333Z" fill="url(#paint12_linear_0_10)"/>
<path d="M3.00199 7.89468L13.416 6.20239L13.5723 6.43671L2.92389 8.15503L3.00199 7.89468Z" fill="url(#paint13_linear_0_10)"/>
<path d="M13.8847 6.9574L3.60082 8.62365C3.3665 8.64968 3.15822 8.75382 2.94994 8.93607C2.76769 9.11831 2.63752 9.32659 2.58545 9.56091L2.63752 9.35263L13.6764 7.55621L13.8847 6.9574Z" fill="url(#paint14_linear_0_10)"/>
</g>
<defs>
<linearGradient id="paint0_linear_0_10" x1="0.606709" y1="12.7951" x2="15.8785" y2="10.3326" gradientUnits="userSpaceOnUse">
<stop stop-color="#B2B2B2" stop-opacity="0.5"/>
<stop offset="0.7" stop-color="#666666"/>
</linearGradient>
<linearGradient id="paint1_linear_0_10" x1="-0.241573" y1="8.50766" x2="15.1831" y2="6.02046" gradientUnits="userSpaceOnUse">
<stop stop-color="#404040"/>
<stop offset="0.0474932" stop-color="#565656"/>
<stop offset="0.1581" stop-color="#838383"/>
<stop offset="0.2695" stop-color="#A8A8A8"/>
<stop offset="0.3799" stop-color="#C5C5C5"/>
<stop offset="0.489" stop-color="#DADADA"/>
<stop offset="0.5964" stop-color="#E6E6E6"/>
<stop offset="0.7" stop-color="#EBEBEB"/>
</linearGradient>
<linearGradient id="paint2_linear_0_10" x1="3.38244" y1="5.17245" x2="3.6551" y2="6.86337" gradientUnits="userSpaceOnUse">
<stop stop-color="white" stop-opacity="0"/>
<stop offset="1" stop-color="white"/>
</linearGradient>
<linearGradient id="paint3_linear_0_10" x1="3.37935" y1="5.28683" x2="11.9402" y2="3.9064" gradientUnits="userSpaceOnUse">
<stop stop-color="white" stop-opacity="0"/>
<stop offset="0.5" stop-color="white"/>
<stop offset="0.9268" stop-color="white" stop-opacity="0.1463"/>
<stop offset="1" stop-color="white" stop-opacity="0"/>
</linearGradient>
<linearGradient id="paint4_linear_0_10" x1="3.30079" y1="5.73587" x2="13.0134" y2="4.16973" gradientUnits="userSpaceOnUse">
<stop stop-color="#B2B2B2" stop-opacity="0.5"/>
<stop offset="0.7" stop-color="#808080"/>
</linearGradient>
<linearGradient id="paint5_linear_0_10" x1="3.7687" y1="4.42205" x2="11.5848" y2="3.16172" gradientUnits="userSpaceOnUse">
<stop stop-color="#E3E3E3" stop-opacity="0"/>
<stop offset="0.0742541" stop-color="#CDCDCD" stop-opacity="0.0928177"/>
<stop offset="0.2222" stop-color="#A8A8A8" stop-opacity="0.2777"/>
<stop offset="0.3703" stop-color="#8B8B8B" stop-opacity="0.4629"/>
<stop offset="0.5168" stop-color="#777777" stop-opacity="0.6459"/>
<stop offset="0.6609" stop-color="#6A6A6A" stop-opacity="0.8261"/>
<stop offset="0.8" stop-color="#666666"/>
<stop offset="1" stop-color="#B2B2B2" stop-opacity="0"/>
</linearGradient>
<linearGradient id="paint6_linear_0_10" x1="3.41093" y1="5.55003" x2="11.9824" y2="4.1679" gradientUnits="userSpaceOnUse">
<stop stop-color="white" stop-opacity="0"/>
<stop offset="1" stop-color="#C9C9C9"/>
</linearGradient>
<linearGradient id="paint7_linear_0_10" x1="0.0691724" y1="12.3402" x2="15.7941" y2="9.80456" gradientUnits="userSpaceOnUse">
<stop stop-color="white" stop-opacity="0"/>
<stop offset="0.5" stop-color="white"/>
<stop offset="0.9268" stop-color="white" stop-opacity="0.1463"/>
<stop offset="1" stop-color="white" stop-opacity="0"/>
</linearGradient>
<linearGradient id="paint8_linear_0_10" x1="0.963043" y1="12.7629" x2="15.8831" y2="10.357" gradientUnits="userSpaceOnUse">
<stop stop-color="white" stop-opacity="0"/>
<stop offset="1" stop-color="#C9C9C9"/>
</linearGradient>
<linearGradient id="paint9_linear_0_10" x1="-0.00794678" y1="11.9478" x2="15.498" y2="9.4475" gradientUnits="userSpaceOnUse">
<stop stop-color="#E3E3E3" stop-opacity="0"/>
<stop offset="0.0742541" stop-color="#CDCDCD" stop-opacity="0.0928177"/>
<stop offset="0.2222" stop-color="#A8A8A8" stop-opacity="0.2777"/>
<stop offset="0.3703" stop-color="#8B8B8B" stop-opacity="0.4629"/>
<stop offset="0.5168" stop-color="#777777" stop-opacity="0.6459"/>
<stop offset="0.6609" stop-color="#6A6A6A" stop-opacity="0.8261"/>
<stop offset="0.8" stop-color="#666666"/>
<stop offset="1" stop-color="#B2B2B2" stop-opacity="0"/>
</linearGradient>
<linearGradient id="paint10_linear_0_10" x1="2.51378" y1="8.7824" x2="2.78655" y2="10.474" gradientUnits="userSpaceOnUse">
<stop stop-color="white" stop-opacity="0"/>
<stop offset="1" stop-color="white"/>
</linearGradient>
<linearGradient id="paint11_linear_0_10" x1="2.51109" y1="8.89664" x2="13.8999" y2="7.06023" gradientUnits="userSpaceOnUse">
<stop stop-color="white" stop-opacity="0"/>
<stop offset="0.5" stop-color="white"/>
<stop offset="0.9268" stop-color="white" stop-opacity="0.1463"/>
<stop offset="1" stop-color="white" stop-opacity="0"/>
</linearGradient>
<linearGradient id="paint12_linear_0_10" x1="2.4323" y1="9.34626" x2="15.2993" y2="7.27148" gradientUnits="userSpaceOnUse">
<stop stop-color="#B2B2B2" stop-opacity="0.5"/>
<stop offset="0.7" stop-color="#808080"/>
</linearGradient>
<linearGradient id="paint13_linear_0_10" x1="2.90027" y1="8.03169" x2="13.544" y2="6.31541" gradientUnits="userSpaceOnUse">
<stop stop-color="#E3E3E3" stop-opacity="0"/>
<stop offset="0.0742541" stop-color="#CDCDCD" stop-opacity="0.0928177"/>
<stop offset="0.2222" stop-color="#A8A8A8" stop-opacity="0.2777"/>
<stop offset="0.3703" stop-color="#8B8B8B" stop-opacity="0.4629"/>
<stop offset="0.5168" stop-color="#777777" stop-opacity="0.6459"/>
<stop offset="0.6609" stop-color="#6A6A6A" stop-opacity="0.8261"/>
<stop offset="0.8" stop-color="#666666"/>
<stop offset="1" stop-color="#B2B2B2" stop-opacity="0"/>
</linearGradient>
<linearGradient id="paint14_linear_0_10" x1="2.54242" y1="9.16041" x2="13.9422" y2="7.32221" gradientUnits="userSpaceOnUse">
<stop stop-color="white" stop-opacity="0"/>
<stop offset="1" stop-color="#C9C9C9"/>
</linearGradient>
<clipPath id="clip0_0_10">
<rect width="16" height="16" fill="white"/>
</clipPath>
</defs>
</svg>
